<?xml version="1.0" standalone="no"?>
<!DOCTYPE svg PUBLIC "-//W3C//DTD SVG 20010904//EN"
 "http://www.w3.org/TR/2001/REC-SVG-20010904/DTD/svg10.dtd">
<svg version="1.0" xmlns="http://www.w3.org/2000/svg"
 width="1084.000000pt" height="1080.000000pt" viewBox="0 0 1084.000000 1080.000000"
 preserveAspectRatio="xMidYMid meet">

<g transform="translate(0.000000,1080.000000) scale(0.100000,-0.100000)"
fill="#000000" stroke="none">
<path d="M2 8113 c0 -1523 4 -2601 9 -2488 11 286 43 571 84 765 7 36 19 92
25 125 53 268 206 769 270 887 6 10 10 22 10 28 0 5 15 43 33 82 18 40 40 89
47 108 60 152 262 517 406 737 80 121 262 372 329 452 110 132 255 292 380
416 151 151 362 341 370 333 3 -2 18 -41 34 -87 46 -129 86 -180 155 -197 l29
-7 -6 84 c-7 87 -16 125 -61 243 -14 38 -25 70 -24 70 2 1 20 14 41 30 20 15
37 24 35 19 -4 -17 122 -277 165 -336 16 -24 17 -31 6 -41 -8 -7 -90 -62 -184
-121 -93 -60 -206 -136 -249 -170 -224 -170 -234 -179 -300 -257 -54 -64 -113
-106 -250 -181 -88 -47 -222 -155 -261 -209 -11 -15 -59 -71 -106 -125 -110
-126 -234 -292 -331 -445 -36 -58 -159 -304 -203 -408 -20 -47 -40 -92 -44
-100 -5 -8 -16 -42 -26 -75 -9 -33 -20 -64 -25 -70 -4 -5 -11 -26 -15 -45 -4
-19 -16 -54 -26 -77 -11 -23 -19 -51 -19 -61 0 -11 -7 -37 -16 -58 -9 -22 -23
-66 -32 -99 -8 -33 -18 -64 -22 -70 -3 -5 -15 -39 -25 -75 -10 -36 -26 -92
-36 -124 -11 -33 -19 -71 -19 -84 0 -14 -4 -39 -10 -56 -40 -132 -76 -364 -85
-559 -2 -39 -8 -133 -14 -207 -5 -74 -13 -196 -17 -270 -5 -86 -10 -124 -15
-105 -4 17 -7 -1166 -8 -2627 l-1 -2658 2653 2 c1458 0 2573 4 2477 8 -96 4
-211 12 -255 18 -44 6 -123 16 -175 22 -52 6 -125 18 -161 26 -36 9 -69 14
-75 13 -5 -2 -34 3 -64 9 -30 7 -111 24 -180 38 -69 15 -130 30 -136 35 -6 5
-14 6 -17 3 -3 -4 -30 2 -59 11 -29 10 -60 20 -68 23 -11 3 -11 6 -2 9 6 3 12
9 12 15 0 14 81 103 222 245 141 143 213 207 338 300 99 75 361 218 451 248
49 17 51 19 33 32 -32 24 -63 26 -153 14 -194 -28 -398 -125 -636 -301 -92
-69 -211 -184 -431 -418 l-69 -73 -50 16 c-28 9 -69 24 -93 32 l-43 16 64 66
c35 36 109 118 165 181 140 160 422 438 515 508 181 136 382 202 615 202 133
0 225 -25 393 -106 99 -47 151 -67 193 -71 l56 -6 0 41 c0 23 -14 76 -30 118
-17 42 -54 146 -82 232 -28 87 -66 193 -84 237 -19 44 -34 85 -34 91 0 7 23
30 51 53 74 59 92 86 97 147 5 61 -4 79 -76 156 -43 47 -44 49 -27 68 9 10 38
27 64 36 129 48 323 126 353 142 18 10 60 28 94 40 102 37 125 31 159 -42 13
-28 40 -74 60 -101 27 -39 32 -52 22 -61 -6 -6 -54 -25 -105 -43 -198 -67
-340 -127 -396 -169 -37 -27 -71 -84 -59 -96 23 -23 193 10 293 56 183 85 262
118 297 124 l39 6 71 -134 c62 -115 303 -604 303 -613 0 -1 24 -54 53 -116
128 -271 234 -529 297 -719 34 -102 57 -165 75 -205 7 -16 18 -43 23 -60 5
-16 13 -37 16 -46 7 -15 -14 -25 -109 -49 -16 -5 -52 -15 -80 -23 -61 -18
-167 -43 -285 -67 -30 -6 -77 -16 -105 -22 -27 -6 -61 -12 -75 -13 -14 -1 -50
-7 -80 -13 -30 -6 -95 -16 -145 -21 -49 -6 -130 -16 -180 -22 -49 -7 -164 -15
-255 -19 -91 -4 1033 -7 2498 -8 l2662 -2 0 5400 0 5400 -2692 -2 c-2291 -1
-2656 -3 -2448 -14 238 -12 350 -22 495 -44 39 -6 95 -15 125 -19 30 -5 75
-13 100 -19 25 -6 70 -16 100 -22 121 -24 220 -48 285 -67 28 -8 64 -18 80
-23 69 -17 123 -34 175 -52 30 -11 67 -22 83 -25 15 -3 30 -9 33 -14 3 -5 15
-9 28 -9 12 0 26 -4 32 -8 5 -4 27 -14 49 -21 22 -7 56 -20 75 -28 48 -21 68
-29 117 -47 103 -38 458 -210 578 -281 33 -19 67 -38 75 -42 30 -13 267 -164
345 -219 93 -66 337 -248 357 -266 7 -7 54 -47 103 -88 100 -83 429 -407 521
-514 32 -38 66 -76 74 -85 9 -9 42 -50 75 -91 33 -41 62 -77 65 -80 10 -9 186
-254 227 -315 77 -116 193 -302 193 -309 0 -3 20 -39 45 -81 36 -61 177 -342
215 -430 5 -11 19 -42 31 -69 102 -233 233 -636 288 -886 5 -25 14 -65 20 -90
6 -25 15 -72 21 -105 6 -33 17 -94 25 -135 25 -132 38 -243 65 -551 13 -149
13 -550 0 -698 -28 -320 -39 -412 -65 -551 -8 -41 -19 -104 -26 -140 -16 -89
-46 -223 -64 -290 -68 -248 -150 -509 -180 -575 -7 -16 -30 -72 -49 -123 -79
-204 -243 -536 -357 -720 -21 -35 -39 -66 -39 -68 0 -3 -13 -24 -28 -47 -16
-23 -62 -91 -102 -152 -128 -192 -318 -437 -455 -585 -145 -157 -421 -426
-528 -515 -27 -22 -54 -45 -60 -50 -28 -25 -159 -126 -246 -189 l-94 -68 -26
33 c-14 19 -44 55 -66 80 -22 26 -58 68 -80 95 -22 26 -91 107 -154 179 -150
172 -199 242 -226 323 -26 78 -50 217 -65 387 -7 66 -20 156 -31 199 -10 44
-16 82 -13 85 13 13 86 -4 192 -46 118 -46 226 -67 287 -56 78 15 145 113 145
213 0 132 -76 233 -236 312 -79 39 -94 43 -158 42 -83 0 -205 -29 -224 -52
-17 -22 -15 -56 6 -81 13 -16 40 -25 107 -36 117 -21 254 -60 284 -83 47 -35
65 -69 66 -125 l0 -52 -35 1 c-19 1 -80 20 -135 44 -197 85 -336 133 -433 150
-61 11 -72 16 -73 34 -3 38 2 90 18 176 19 106 19 105 39 330 9 102 22 228 30
280 18 121 18 196 1 203 -22 8 -284 -12 -477 -37 -102 -14 -214 -28 -250 -31
-80 -8 -284 -43 -314 -55 -12 -4 -36 -22 -53 -40 -30 -31 -32 -31 -42 -12 -6
11 -17 22 -26 25 -28 11 -484 -139 -592 -195 -134 -69 -199 -107 -218 -128
-10 -11 -24 -20 -32 -20 -7 0 -13 -5 -13 -11 0 -6 6 -9 13 -6 26 10 24 13 154
-200 46 -75 102 -133 130 -133 21 0 180 62 268 104 141 68 364 149 513 187 84
22 162 39 172 39 25 0 25 -20 1 -96 -40 -125 -60 -212 -66 -286 -7 -71 -9 -77
-34 -87 -50 -19 -237 -79 -392 -126 -174 -52 -162 -53 -241 11 -15 12 -63 42
-105 65 -111 61 -191 125 -222 177 -14 24 -61 98 -103 164 -42 66 -82 133 -88
149 -14 34 -36 40 -72 22 -51 -25 -39 -58 113 -313 38 -64 69 -121 69 -126 0
-6 -10 -15 -23 -21 -36 -17 -134 -36 -150 -30 -8 3 -19 32 -26 68 -15 74 -38
124 -91 194 -20 28 -45 65 -54 83 -9 17 -18 32 -21 32 -2 0 -37 -25 -77 -55
-86 -65 -163 -103 -224 -112 l-44 -6 0 32 c0 32 41 103 76 132 16 12 17 12 11
-4 -4 -11 -3 -16 4 -12 5 4 7 14 4 24 -6 21 58 71 170 132 92 50 159 93 230
149 29 24 61 40 76 40 34 0 82 17 204 75 208 98 292 133 370 154 44 12 118 37
165 56 47 19 114 39 150 44 36 6 108 20 160 31 157 32 275 41 654 48 l361 7 7
45 c4 25 5 57 2 71 l-5 26 -143 2 c-78 1 -171 -3 -207 -8 -35 -6 -116 -15
-179 -21 -63 -6 -173 -20 -245 -30 -71 -11 -179 -25 -240 -31 -85 -9 -123 -18
-165 -39 -43 -22 -60 -26 -80 -18 -14 5 -41 6 -60 3 -67 -12 -276 -76 -380
-117 -128 -49 -208 -80 -297 -115 -38 -14 -91 -41 -119 -58 -28 -18 -61 -36
-75 -40 -13 -4 -69 -31 -124 -60 -55 -29 -122 -65 -150 -79 -27 -13 -86 -52
-130 -85 -90 -69 -132 -82 -171 -56 -35 23 -26 58 30 110 68 63 293 226 375
272 42 23 77 46 79 52 2 6 -37 75 -86 153 -49 79 -112 188 -140 243 -28 55
-74 136 -102 180 -67 105 -65 135 6 135 34 0 65 -37 88 -101 26 -75 85 -190
162 -321 67 -112 106 -191 118 -240 8 -34 11 -34 83 -2 284 128 675 264 756
264 16 0 28 7 31 18 10 29 -22 131 -67 217 -130 249 -129 249 -66 253 29 2 50
-2 56 -10 11 -13 72 -186 112 -316 12 -40 32 -84 45 -99 l23 -26 84 23 c61 16
128 25 249 30 91 5 215 13 275 19 61 6 241 11 402 11 212 1 293 5 296 13 2 7
3 167 2 357 -2 356 0 335 -55 720 -23 158 -112 473 -164 575 -8 17 -33 73 -56
125 -129 297 -276 522 -498 765 -212 233 -543 481 -795 595 -137 62 -379 129
-524 145 -88 10 -323 -11 -568 -50 -49 -8 -158 -24 -241 -34 -291 -38 -399
-80 -614 -241 -213 -160 -309 -264 -442 -475 -141 -226 -224 -465 -262 -760
-9 -66 -21 -159 -27 -207 -38 -282 70 -828 308 -1553 106 -323 136 -400 220
-550 88 -158 131 -220 184 -270 l49 -46 28 18 c41 27 111 59 171 78 73 24 153
16 233 -23 79 -37 195 -148 228 -217 24 -48 25 -57 25 -266 l0 -216 43 -84
c23 -46 60 -106 82 -134 78 -98 132 -184 126 -200 -3 -8 -16 -19 -28 -24 -13
-5 -70 -31 -128 -59 -166 -80 -311 -180 -403 -279 -241 -260 -310 -327 -370
-359 -15 -8 -32 -12 -37 -9 -18 11 -11 126 10 169 27 56 123 172 232 282 98
98 198 252 198 305 0 22 -18 44 -91 111 -146 133 -345 377 -460 564 -20 34
-70 108 -111 165 -82 117 -198 308 -254 420 -20 40 -77 145 -125 231 -148 263
-260 519 -339 773 -85 276 -126 589 -117 906 7 250 34 436 98 671 28 101 42
141 73 213 8 17 29 68 47 115 85 219 228 435 421 635 115 120 209 189 383 282
231 123 303 153 520 219 152 46 222 59 464 90 146 19 231 15 536 -27 318 -43
413 -79 885 -338 115 -63 275 -186 497 -384 125 -111 206 -202 262 -292 41
-67 211 -408 235 -470 10 -27 38 -102 61 -165 24 -63 59 -154 79 -202 115
-284 164 -775 120 -1219 -20 -199 -17 -227 34 -265 116 -88 221 -216 247 -301
19 -61 19 -171 1 -214 -23 -55 -153 -168 -284 -249 -49 -30 -79 -70 -67 -89 2
-4 5 -78 6 -163 0 -85 4 -161 9 -168 11 -18 51 -6 113 34 29 19 77 42 107 51
112 36 129 47 215 141 47 50 109 107 138 124 28 18 96 61 149 96 54 35 100 64
103 64 17 0 -5 -41 -85 -160 -50 -74 -94 -137 -98 -140 -21 -15 -103 -121
-122 -157 -59 -114 -17 -190 74 -134 38 24 134 130 207 231 96 131 259 379
259 395 0 2 12 21 26 42 39 57 149 281 178 364 15 41 49 119 75 174 116 237
148 335 206 630 29 147 43 252 55 415 5 69 15 191 21 273 9 115 9 176 0 275
-7 70 -16 195 -21 277 -4 83 -15 197 -24 255 -35 223 -57 368 -66 435 -10 69
-14 87 -58 245 -27 96 -88 260 -141 376 -22 51 -41 95 -41 99 0 3 -49 106
-109 228 -109 222 -140 305 -161 427 -16 92 -44 169 -108 290 -69 132 -184
332 -223 387 -42 60 -167 172 -249 224 -77 48 -375 249 -565 381 -74 51 -151
115 -200 166 -71 75 -163 154 -220 189 -77 48 -248 125 -355 159 -124 40 -488
93 -643 94 -106 0 -172 7 -332 35 -44 8 -125 19 -180 25 -55 6 -140 16 -190
23 -125 17 -1076 17 -1240 -1 -66 -6 -169 -17 -230 -23 -60 -6 -170 -26 -245
-45 -147 -38 -180 -46 -315 -73 -113 -23 -175 -39 -245 -61 -30 -10 -77 -24
-105 -31 -27 -7 -86 -28 -130 -47 -44 -18 -114 -47 -155 -63 -41 -17 -97 -41
-125 -54 -27 -13 -58 -26 -68 -29 -12 -4 -49 27 -135 112 -64 65 -145 141
-179 169 -57 47 -60 52 -45 66 20 17 271 177 279 177 3 0 17 8 31 19 97 67
551 289 702 343 30 10 64 24 74 30 21 11 251 94 301 108 44 12 202 58 260 75
50 15 168 42 280 64 33 7 78 17 100 23 22 5 64 14 95 18 168 25 213 32 295 42
50 5 200 16 335 23 206 10 -180 12 -2437 13 l-2683 2 2 -2687z m6397 1579
c272 -30 599 -115 736 -192 157 -87 305 -216 350 -305 67 -133 85 -373 44
-576 -10 -49 -8 -67 10 -139 26 -103 26 -126 2 -166 -15 -25 -33 -36 -89 -53
-39 -11 -103 -40 -144 -63 -111 -63 -312 -152 -418 -186 -323 -103 -688 -120
-1088 -51 -182 32 -294 74 -409 155 -34 24 -64 44 -67 44 -2 0 -37 24 -75 53
-58 44 -155 99 -240 137 -11 5 -15 42 -17 186 -2 98 -8 197 -13 219 -6 22 -13
96 -16 165 -2 72 -1 112 4 95 7 -26 9 -27 16 -12 6 15 13 4 30 -47 12 -36 34
-81 48 -99 28 -37 127 -107 213 -150 72 -36 296 -110 465 -152 79 -20 161 -40
183 -46 56 -15 463 -23 586 -11 58 6 155 19 217 30 435 79 665 188 708 336 14
49 14 60 0 122 -28 120 -68 189 -174 295 -151 150 -269 203 -444 197 l-82 -3
3 -40 c4 -52 32 -76 142 -122 112 -46 181 -92 265 -178 75 -76 125 -161 125
-211 0 -20 -9 -39 -27 -55 -131 -120 -443 -190 -918 -206 -213 -6 -320 2 -495
38 -112 24 -122 27 -305 92 -270 95 -324 133 -364 258 -18 59 -13 101 18 150
44 68 110 125 181 157 76 34 93 51 88 89 -3 26 -6 28 -58 31 -142 8 -272 -65
-367 -206 -37 -56 -38 -58 -37 -150 0 -51 -3 -87 -8 -80 -4 7 -8 25 -8 40 0
15 -13 49 -30 75 -44 69 -41 102 18 158 79 78 203 171 277 207 136 68 415 147
629 177 38 5 71 13 74 16 12 11 265 -2 461 -23z m-3869 -477 c17 -20 7 -31
-84 -90 -162 -106 -288 -272 -351 -465 -39 -121 -49 -134 -118 -157 -34 -11
-98 -28 -142 -38 -104 -21 -322 -114 -406 -172 -91 -61 -160 -135 -207 -218
-49 -88 -130 -272 -138 -317 -4 -18 -10 -38 -15 -43 -19 -26 -82 -277 -101
-407 -9 -61 -9 -92 1 -140 29 -138 32 -127 -55 -204 -125 -111 -147 -138 -197
-236 -53 -107 -82 -185 -102 -279 -16 -73 -70 -176 -151 -286 -51 -69 -86 -95
-105 -76 -6 6 -5 88 1 209 17 331 25 359 167 644 62 123 84 157 145 221 40 42
92 91 116 108 l42 33 0 170 c0 155 2 176 26 246 40 119 160 320 276 462 54 65
262 279 308 315 91 72 249 152 329 167 113 20 115 21 136 63 103 202 170 264
450 416 28 14 73 40 100 57 59 36 59 36 75 17z m5325 -274 c168 -83 227 -108
295 -127 36 -9 73 -24 83 -32 20 -18 131 -231 124 -239 -3 -2 -34 7 -69 20
-127 50 -225 85 -338 122 -63 21 -136 46 -162 57 -54 23 -54 24 -63 166 -6
101 -7 101 130 33z m-3043 -243 c18 -15 31 -75 18 -83 -5 -3 -81 -24 -167 -47
-254 -65 -281 -73 -433 -123 -80 -26 -202 -74 -272 -106 -69 -33 -135 -59
-145 -59 -11 0 -41 7 -67 16 -26 9 -50 14 -53 10 -11 -11 21 -102 77 -216 68
-136 84 -185 105 -304 20 -118 19 -135 -11 -224 -46 -137 -155 -297 -341 -501
-126 -137 -202 -204 -353 -310 -321 -226 -485 -314 -705 -379 -109 -33 -363
-72 -461 -72 -135 0 -155 12 -371 231 -100 101 -208 216 -240 254 -55 66 -116
182 -157 297 -17 45 -45 82 -94 120 -12 10 -22 23 -22 30 0 7 31 48 68 91 37
42 89 117 115 165 26 48 77 125 113 172 35 47 82 108 104 137 48 63 286 311
390 406 144 133 239 196 460 307 235 118 430 170 641 170 181 0 289 -29 479
-128 104 -54 259 -102 332 -102 18 0 80 26 152 65 172 91 235 112 486 159 178
34 174 33 261 35 47 0 81 -4 91 -11z m3693 -747 c82 -38 172 -97 189 -124 7
-12 19 -44 25 -72 12 -50 114 -263 150 -314 17 -24 54 -99 116 -236 12 -27 30
-75 39 -105 10 -30 33 -95 52 -145 59 -150 70 -184 113 -335 38 -134 65 -319
42 -294 -11 13 -39 67 -114 224 -61 127 -143 252 -185 282 -10 7 -34 26 -53
42 l-34 29 -1 176 c-1 192 -8 234 -59 346 -43 94 -118 192 -230 297 -94 89
-133 152 -149 236 -5 31 -4 33 17 27 12 -4 49 -19 82 -34z m-7802 -492 c17
-19 17 -24 3 -60 -19 -48 -51 -85 -90 -104 -37 -19 -36 -19 -36 9 0 37 78 176
99 176 4 0 15 -9 24 -21z m5112 -643 c93 -42 201 -97 240 -123 132 -90 249
-214 381 -405 21 -31 53 -57 99 -83 115 -64 299 -258 337 -354 57 -145 48
-359 -22 -510 -17 -35 -30 -69 -30 -77 0 -7 18 -28 41 -46 80 -64 139 -170
139 -248 0 -36 -56 -192 -86 -237 -20 -31 -35 -29 -110 13 l-64 36 -228 -4
-227 -4 -195 -48 c-248 -60 -324 -84 -433 -135 -49 -23 -90 -41 -92 -41 -3 0
-35 -19 -72 -42 -90 -57 -101 -63 -148 -89 -22 -11 -78 -46 -125 -77 -54 -35
-94 -54 -110 -53 -14 1 -69 2 -123 1 -118 -1 -154 13 -243 91 -110 97 -114
104 -114 205 -1 106 -29 276 -60 357 -12 32 -48 93 -80 135 l-58 77 27 30 c89
96 106 156 105 365 0 158 -2 169 -33 270 -47 147 -48 166 -20 190 13 11 44 33
69 47 41 25 55 28 197 35 85 4 162 12 175 19 13 7 47 34 77 61 67 61 73 61
226 -18 96 -50 119 -58 180 -62 60 -4 86 1 184 32 126 40 167 43 232 21 49
-18 62 -10 57 31 -5 49 -54 66 -168 60 -52 -2 -131 -14 -175 -25 -116 -30
-151 -27 -266 20 -76 32 -99 46 -99 60 0 29 40 39 156 39 112 0 144 9 144 41
0 32 -44 41 -176 37 -111 -4 -125 -7 -185 -37 -35 -18 -95 -57 -134 -86 -38
-29 -85 -60 -104 -70 -45 -22 -223 -34 -246 -15 -12 10 -15 39 -15 151 0 158
-5 151 90 123 47 -14 63 -14 110 -4 56 13 155 61 246 119 44 27 65 34 143 41
181 17 263 64 295 167 31 106 32 106 79 100 23 -2 118 -39 212 -81z m-4582
-93 c9 -21 30 -63 47 -94 l31 -56 -103 -104 c-57 -57 -121 -127 -143 -154 -22
-27 -54 -65 -71 -85 -57 -65 -264 -339 -264 -349 0 -5 -10 -19 -23 -33 -21
-22 -70 -99 -172 -268 -18 -30 -49 -80 -68 -110 -34 -54 -78 -135 -164 -300
-105 -199 -156 -296 -163 -303 -18 -20 -40 64 -42 155 -2 107 11 153 89 314
26 55 54 116 61 135 56 142 197 373 374 613 40 55 96 135 125 178 28 43 74
106 101 141 75 93 336 357 354 357 8 0 22 -17 31 -37z m3287 -407 l0 -85 -50
-59 c-27 -33 -64 -70 -82 -83 -57 -39 -98 -82 -98 -104 0 -12 12 -37 26 -56
172 -230 158 -550 -32 -728 -35 -33 -64 -62 -64 -64 0 -2 29 -24 64 -50 91
-67 148 -155 185 -288 27 -97 27 -204 1 -283 -11 -33 -20 -68 -20 -79 0 -12
32 -52 79 -97 93 -92 217 -252 258 -335 16 -33 38 -87 48 -119 16 -53 16 -63
4 -85 -29 -51 -49 -34 -83 69 -32 98 -71 166 -162 281 -73 93 -131 139 -214
174 -39 16 -76 35 -81 41 -7 8 -3 29 11 65 51 133 63 270 34 370 -27 91 -75
143 -206 223 -37 22 -35 39 10 94 82 101 136 274 137 437 0 110 0 110 -52 241
-29 73 -55 150 -59 173 l-6 41 85 80 c47 44 109 115 138 158 71 104 109 152
120 152 5 0 9 -38 9 -84z m4757 -558 c6 -7 16 -63 23 -124 10 -88 10 -140 0
-250 -6 -76 -14 -142 -17 -146 -16 -27 -34 10 -58 116 -9 38 -25 86 -36 107
-19 37 -19 39 0 86 10 26 29 87 41 136 23 88 29 97 47 75z m-8558 -920 c46
-116 89 -192 144 -255 54 -61 77 -97 77 -121 0 -21 -38 -121 -52 -136 -35 -41
45 -135 172 -200 91 -47 120 -74 120 -111 0 -12 -18 -57 -39 -102 -51 -105
-65 -175 -56 -277 10 -121 23 -173 65 -262 31 -64 54 -95 113 -151 62 -59 87
-75 157 -102 46 -17 102 -36 125 -42 54 -14 116 -76 140 -141 28 -76 70 -117
134 -128 29 -6 68 -10 86 -10 43 0 64 -25 131 -156 113 -219 176 -287 342
-374 55 -29 74 -33 165 -37 96 -5 139 -1 328 28 103 16 124 9 148 -45 44 -100
121 -203 214 -286 130 -116 278 -186 446 -210 151 -22 409 15 556 80 87 38 95
41 95 27 0 -6 -39 -57 -86 -112 -131 -152 -139 -170 -139 -290 0 -84 4 -107
22 -142 l22 -41 -20 -26 c-11 -14 -62 -63 -112 -108 -100 -88 -413 -410 -457
-470 -46 -62 -142 -168 -181 -199 l-37 -29 -118 52 c-475 207 -916 485 -1338
843 -225 190 -486 458 -671 686 -197 243 -361 485 -526 773 -36 62 -194 379
-231 461 -81 184 -193 491 -233 640 -9 33 -23 83 -31 110 -18 62 -26 94 -53
217 -12 53 -24 105 -27 115 -3 10 3 4 14 -14 28 -43 57 -56 106 -50 56 8 66
26 66 120 0 78 0 79 40 118 21 21 43 39 47 39 22 0 117 -114 163 -194 45 -79
54 -103 70 -195 21 -125 31 -151 98 -254 60 -92 88 -174 96 -282 l6 -80 -22
29 c-58 73 -190 313 -236 428 -49 123 -99 205 -128 212 -52 13 -66 -15 -65
-125 1 -76 2 -80 75 -232 29 -61 71 -150 92 -197 21 -47 43 -92 50 -100 6 -8
23 -38 37 -66 14 -28 42 -72 61 -97 20 -26 36 -49 36 -52 0 -2 28 -45 63 -96
34 -50 69 -100 76 -112 8 -12 35 -47 60 -76 49 -59 64 -78 153 -193 82 -107
484 -499 582 -568 12 -8 27 -20 35 -28 7 -7 48 -36 90 -64 42 -28 112 -79 156
-112 115 -88 360 -237 510 -310 237 -116 616 -256 855 -316 47 -11 101 -25
120 -30 132 -34 296 -58 448 -64 102 -4 115 -3 133 15 22 22 26 81 5 98 -21
17 -238 62 -336 70 l-85 6 3 62 c3 67 -9 83 -60 83 -27 0 -288 62 -363 87 -77
25 -119 56 -186 137 -33 41 -72 79 -87 84 -15 6 -79 14 -142 17 -155 8 -235
27 -360 87 -119 57 -219 129 -301 215 -63 65 -89 105 -148 219 -65 128 -76
137 -160 145 -47 4 -82 13 -99 26 -16 11 -52 68 -87 135 -67 131 -56 123 -225
180 -167 57 -255 131 -347 293 -78 137 -100 247 -89 444 7 129 7 130 -16 142
-103 53 -150 134 -168 289 -14 116 -24 141 -102 231 -26 31 -48 60 -48 64 0 5
-16 27 -35 51 -19 23 -35 49 -35 57 0 9 -6 17 -12 20 -10 3 -10 9 -1 28 22 46
73 178 73 189 0 20 42 105 58 118 22 17 29 7 71 -100z m5866 -209 c11 -11 12
-72 2 -110 -8 -30 -30 -39 -97 -39 -72 0 -89 8 -100 49 -5 20 -10 53 -10 73 0
30 4 37 23 41 33 8 171 -3 182 -14z m-310 -22 c15 -11 17 -23 13 -67 -7 -68
-31 -90 -98 -90 -56 0 -65 8 -86 81 -16 52 -16 54 6 71 27 22 136 25 165 5z
m-275 -67 c6 -15 12 -50 13 -76 l2 -48 -85 -27 c-119 -39 -131 -38 -154 13
-17 41 -33 108 -25 108 2 0 49 15 103 34 55 18 107 31 117 29 10 -3 23 -18 29
-33z m3160 -111 c0 -64 -77 -255 -118 -292 -19 -18 -20 -17 -27 87 -9 136 -3
160 47 196 22 16 44 27 49 24 5 -3 9 -1 9 3 0 5 9 9 20 10 16 1 20 -4 20 -28z
m-3496 -11 c24 -34 20 -90 -7 -109 -107 -77 -269 -179 -285 -179 -18 0 -132
103 -132 120 0 13 46 43 135 88 204 103 262 119 289 80z m-663 -299 c45 -23
123 -200 117 -263 -3 -29 -6 -31 -49 -34 -54 -4 -57 0 -93 93 -15 39 -38 94
-51 123 -29 62 -32 89 -7 95 19 5 59 -2 83 -14z m620 -792 c-7 -7 -17 -5 -31
8 -19 17 -19 20 -4 28 11 6 19 5 25 -4 6 -10 9 -7 10 11 2 23 2 23 6 -4 3 -16
0 -33 -6 -39z m1226 -32 c30 -21 40 -71 18 -95 -18 -20 -86 -40 -135 -40 -26
0 -33 6 -44 33 -8 17 -17 51 -21 75 l-7 42 84 0 c58 0 90 -5 105 -15z m-289
-52 c13 -12 23 -36 27 -70 4 -29 5 -53 3 -53 -2 0 -28 -9 -58 -20 -77 -28
-108 -27 -121 7 -5 15 -9 50 -7 77 3 48 5 52 38 63 51 17 95 16 118 -4z m-248
-135 c0 -35 -6 -74 -13 -88 -15 -30 -60 -54 -86 -45 -26 8 -114 123 -108 139
8 21 106 55 160 55 l47 1 0 -62z m-262 -30 c19 -25 63 -176 60 -209 -3 -31 -6
-34 -40 -37 l-36 -3 -52 96 c-58 106 -57 110 9 145 43 23 46 23 59 8z m-4671
-210 c41 -19 99 -79 138 -143 50 -81 89 -117 164 -153 42 -21 94 -55 116 -77
59 -59 118 -126 138 -157 9 -16 24 -39 33 -53 17 -25 17 -25 -9 -16 -92 35
-591 477 -676 599 l-23 33 38 -7 c22 -4 58 -16 81 -26z m6082 -168 c11 -14 20
-29 21 -34 0 -6 19 -41 42 -79 34 -56 39 -70 27 -78 -8 -5 -66 -9 -129 -9
-109 0 -277 -23 -375 -52 -37 -10 -95 -53 -95 -68 0 -4 24 -13 54 -20 44 -10
101 -10 303 0 136 6 276 14 310 17 47 4 64 1 67 -9 2 -7 9 -71 15 -143 6 -71
15 -161 20 -200 5 -38 15 -119 21 -180 13 -118 41 -254 66 -321 9 -23 34 -59
57 -80 22 -22 74 -79 115 -129 41 -49 128 -148 193 -220 64 -71 133 -151 152
-176 l35 -45 -82 -51 c-44 -28 -101 -62 -126 -76 -25 -13 -73 -41 -108 -60
-34 -20 -124 -67 -200 -105 l-138 -69 -12 25 c-7 14 -12 31 -12 38 0 7 -21 63
-46 126 -26 62 -64 160 -84 218 -21 58 -48 128 -59 155 -11 28 -47 118 -80
200 -33 83 -90 220 -126 305 -37 85 -77 182 -90 216 -18 49 -131 280 -228 469
-9 17 -21 45 -28 63 -7 19 -29 52 -51 74 -21 22 -38 45 -38 52 0 12 25 33 106
87 43 30 44 31 44 88 0 63 13 87 50 95 14 2 107 3 207 2 179 -2 182 -2 202
-26z m-4666 -796 c50 -17 99 -66 116 -116 9 -26 8 -28 -14 -28 -24 0 -130 35
-150 50 -5 4 -26 12 -45 19 -38 13 -130 72 -130 84 0 14 175 7 223 -9z"/>
<path d="M5883 9683 c9 -2 23 -2 30 0 6 3 -1 5 -18 5 -16 0 -22 -2 -12 -5z"/>
<path d="M6388 9623 c6 -2 18 -2 25 0 6 3 1 5 -13 5 -14 0 -19 -2 -12 -5z"/>
<path d="M5708 9503 c7 -3 16 -2 19 1 4 3 -2 6 -13 5 -11 0 -14 -3 -6 -6z"/>
<path d="M2974 8476 c-12 -32 26 -66 134 -119 160 -78 221 -154 210 -264 -12
-124 -250 -401 -512 -597 -313 -234 -749 -421 -1032 -442 -74 -6 -87 -4 -138
19 -89 41 -158 113 -192 202 -16 41 -36 85 -46 97 l-19 23 -39 -45 c-60 -67
-67 -98 -39 -168 47 -119 124 -207 233 -265 34 -18 62 -22 172 -25 122 -4 138
-2 270 32 325 82 569 189 802 350 254 176 489 397 655 617 47 62 69 151 64
254 -6 115 -28 166 -98 229 -88 80 -152 104 -296 112 -109 6 -123 5 -129 -10z"/>
<path d="M1874 7958 l-19 -23 23 19 c21 18 27 26 19 26 -2 0 -12 -10 -23 -22z"/>
<path d="M1785 7897 c-130 -96 -178 -146 -271 -287 -50 -75 -98 -160 -89 -160
2 0 39 53 81 118 58 88 107 146 196 235 65 64 118 117 116 116 -2 0 -16 -10
-33 -22z"/>
<path d="M6093 6024 c-108 -53 -145 -113 -151 -239 -7 -153 31 -315 113 -485
78 -159 170 -259 264 -287 60 -17 212 -14 248 5 24 13 89 143 103 207 14 61 5
247 -17 355 -44 221 -207 414 -382 454 -94 22 -119 20 -178 -10z"/>
<path d="M4905 5681 c-89 -54 -194 -219 -203 -320 -8 -94 33 -272 94 -408 13
-28 24 -54 24 -57 0 -19 85 -140 129 -184 73 -74 116 -92 218 -92 95 0 157 20
242 78 83 56 93 85 99 264 6 173 -6 257 -50 368 -45 116 -177 279 -258 320
-94 48 -242 64 -295 31z"/>
<path d="M5824 5179 c-9 -16 6 -290 18 -313 8 -15 18 -18 58 -14 63 6 144 47
148 74 3 22 -113 204 -154 242 -27 24 -59 29 -70 11z"/>
<path d="M4523 2911 c-91 -97 -94 -103 -86 -158 10 -75 29 -110 76 -140 47
-30 196 -70 206 -55 3 5 16 13 29 16 85 27 110 267 34 339 -39 37 -94 57 -154
56 -51 -1 -55 -4 -105 -58z"/>
<path d="M6811 694 c0 -11 3 -14 6 -6 3 7 2 16 -1 19 -3 4 -6 -2 -5 -13z"/>
<path d="M4376 635 c-11 -8 -15 -15 -9 -15 6 0 16 7 23 15 16 19 11 19 -14 0z"/>
<path d="M6872 475 c0 -16 2 -22 5 -12 2 9 2 23 0 30 -3 6 -5 -1 -5 -18z"/>
<path d="M4175 450 c-3 -5 -1 -10 4 -10 6 0 11 5 11 10 0 6 -2 10 -4 10 -3 0
-8 -4 -11 -10z"/>
<path d="M6898 400 c2 -22 6 -40 8 -40 2 0 4 18 4 40 0 22 -3 40 -8 40 -4 0
-6 -18 -4 -40z"/>
</g>
</svg>
